<svg width="72" height="36" viewBox="0 0 72 36" fill="none" xmlns="http://www.w3.org/2000/svg">
<path opacity="0.6" d="M15.75 3.375L56.25 3.375C64.3272 3.375 70.875 9.92284 70.875 18C70.875 26.0772 64.3272 32.625 56.25 32.625L15.75 32.625C7.67284 32.625 1.125 26.0772 1.125 18C1.125 9.92284 7.67284 3.375 15.75 3.375Z" fill="#6A7691" stroke="#774FEF" stroke-width="2.25"/>
<path opacity="0.8" d="M12.8507 22.804V20.662C13.1774 20.7647 13.5927 20.8533 14.0967 20.928C14.6101 21.0027 15.0907 21.04 15.5387 21.04C15.9494 21.04 16.2574 21.012 16.4627 20.956C16.6774 20.8907 16.8267 20.7927 16.9107 20.662C16.9947 20.522 17.0367 20.326 17.0367 20.074C17.0367 19.8687 16.9994 19.7053 16.9247 19.584C16.8501 19.4533 16.7007 19.3367 16.4767 19.234C16.2527 19.1313 15.9167 19.0287 15.4687 18.926C14.7501 18.758 14.2041 18.5667 13.8307 18.352C13.4574 18.1373 13.1961 17.8573 13.0467 17.512C12.8974 17.1573 12.8227 16.6813 12.8227 16.084C12.8227 15.0387 13.1354 14.2873 13.7607 13.83C14.3861 13.3727 15.3007 13.144 16.5047 13.144C17.4941 13.144 18.3294 13.2607 19.0107 13.494L19.0107 15.496C18.7867 15.412 18.4274 15.3373 17.9327 15.272C17.4381 15.1973 16.9994 15.16 16.6167 15.16C16.1127 15.16 15.7534 15.2253 15.5387 15.356C15.3241 15.4773 15.2167 15.692 15.2167 16C15.2167 16.1867 15.2541 16.3313 15.3287 16.434C15.4034 16.5367 15.5434 16.63 15.7487 16.714C15.9634 16.798 16.2947 16.896 16.7427 17.008C17.5361 17.204 18.1287 17.4327 18.5207 17.694C18.9127 17.946 19.1741 18.2587 19.3047 18.632C19.4447 18.996 19.5147 19.5 19.5147 20.144C19.5147 21.1427 19.2161 21.894 18.6187 22.398C18.0307 22.8927 17.0461 23.14 15.6647 23.14C15.1514 23.14 14.6427 23.1073 14.1387 23.042C13.6441 22.9767 13.2147 22.8973 12.8507 22.804ZM27.5368 23L21.2508 23L21.2508 13.284H27.4108V15.426H23.7288L23.7288 17.022H27.1168V19.08H23.7288V20.858H27.5368V23ZM35.3689 23H29.1669V13.284H31.6449V20.858H35.3689V23ZM42.9587 23H36.6727V13.284L42.8327 13.284V15.426L39.1507 15.426V17.022H42.5387V19.08H39.1507V20.858H42.9587V23ZM44.3367 18.142C44.3367 16.35 44.7427 15.0713 45.5547 14.306C46.3667 13.5313 47.5381 13.144 49.0687 13.144C50.0021 13.144 50.7814 13.256 51.4067 13.48V15.594C50.7534 15.3607 50.0347 15.244 49.2507 15.244C48.7187 15.244 48.2894 15.3373 47.9627 15.524C47.6454 15.7013 47.4121 16 47.2627 16.42C47.1134 16.84 47.0387 17.414 47.0387 18.142C47.0387 18.898 47.1134 19.4813 47.2627 19.892C47.4214 20.3027 47.6594 20.592 47.9767 20.76C48.2941 20.9187 48.7234 20.998 49.2647 20.998C50.0861 20.998 50.8374 20.8767 51.5187 20.634L51.5187 22.748C51.2107 22.8693 50.8467 22.9627 50.4267 23.028C50.0067 23.1027 49.5774 23.14 49.1387 23.14C48.0934 23.14 47.2207 23 46.5207 22.72C45.8301 22.44 45.2934 21.936 44.9107 21.208C44.5281 20.4707 44.3367 19.4487 44.3367 18.142ZM57.2233 15.454L57.2233 23H54.7593L54.7593 15.454H52.3373V13.284H59.6453V15.454H57.2233Z" fill="#F1EDFD"/>
</svg>
